<svg width="24" height="24" viewBox="0 0 24 24" fill="none" xmlns="http://www.w3.org/2000/svg">
<g clip-path="url(#clip0_4722_575)">
<path d="M5.39385 14.7904C6.27893 15.731 7.75727 15.7756 8.69782 14.8905L11.7763 11.993L9.81322 9.90698L5.0333 14.4058L5.39505 14.7892L5.39385 14.7904Z" fill="#004F9F"/>
<path d="M0.635644 9.73576L2.60597 11.829L4.69206 9.86599L3.08348 8.15617L8.3409 3.20761L14.3399 9.58021L14.7378 9.20521C15.6772 8.32016 15.7218 6.84186 14.8379 5.90134L10.0797 0.846665C9.19463 -0.0938521 7.71628 -0.138466 6.77574 0.746585L0.735728 6.43189C-0.204821 7.31694 -0.249436 8.79524 0.635644 9.73576Z" fill="#004F9F"/>
<path d="M14.7909 18.6067C15.7303 17.7217 15.7761 16.2434 14.891 15.3029L11.9934 12.2245L9.90729 14.1875L14.4062 18.9673L14.7897 18.6055L14.7909 18.6067Z" fill="#9F358B"/>
<path d="M9.73605 23.3648L11.8294 21.3946L9.86628 19.3086L8.15642 20.9171L3.20768 15.6598L9.5805 9.66102L9.20549 9.26311C8.32041 8.32259 6.84206 8.27798 5.90151 9.16303L0.846667 13.9211C-0.0938817 14.8061 -0.138497 16.2844 0.746583 17.225L6.43208 23.2648C7.31716 24.2041 8.79551 24.2499 9.73605 23.3648Z" fill="#9F358B"/>
<path d="M18.6073 9.21001C17.7223 8.26949 16.2439 8.22488 15.3034 9.10993L12.2249 12.0074L14.188 14.0935L18.9679 9.59466L18.6061 9.21121L18.6073 9.21001Z" fill="#009EB0"/>
<path d="M23.3656 14.2647L21.3952 12.1714L19.3092 14.1345L20.9177 15.8431L15.6591 20.7917L9.66009 14.419L9.26217 14.794C8.32283 15.6791 8.277 17.1574 9.16209 18.0979L13.9203 23.1526C14.8054 24.0931 16.2837 24.1377 17.2243 23.2527L23.2643 17.5674C24.2048 16.6823 24.2494 15.204 23.3644 14.2635" fill="#009EB0"/>
<path d="M9.21031 5.39366C8.26976 6.27871 8.22514 7.75701 9.11022 8.69753L12.0078 11.7747L14.0939 9.81168L9.59497 5.03192L9.21151 5.39366H9.21031Z" fill="#F00023"/>
<path d="M14.2652 0.635623L12.1718 2.60589L14.1349 4.69191L15.8436 3.08338L20.7923 8.34063L14.4195 14.3394L14.7945 14.7374C15.6796 15.6767 17.1579 15.7225 18.0985 14.8374L23.1533 10.0794C24.0927 9.19433 24.1385 7.71603 23.2534 6.77551L17.5691 0.735704C16.6853 -0.204814 15.2057 -0.249428 14.2652 0.635623Z" fill="#F00023"/>
</g>
<defs>
<clipPath id="clip0_4722_575">
<rect width="24" height="24" fill="white"/>
</clipPath>
</defs>
</svg>
