<svg width="127" height="24" viewBox="0 0 127 24" fill="none" xmlns="http://www.w3.org/2000/svg">
<g clip-path="url(#clip0_1671_45896)">
<path fill-rule="evenodd" clip-rule="evenodd" d="M23.5726 2.9502L3.70752 4.04864V24.0003L23.5726 22.9019V2.9502V2.9502Z" fill="#136CFF"/>
<path fill-rule="evenodd" clip-rule="evenodd" d="M20.2908 0L0.425781 1.09844L3.70719 4.04833L23.5722 2.94989L20.2908 0V0Z" fill="#60A5FA"/>
<path fill-rule="evenodd" clip-rule="evenodd" d="M3.70719 4.04852L0.425781 1.09863V21.0503L3.70719 24.0002V4.04852V4.04852Z" fill="#0057E5"/>
</g>
<path d="M42.5376 9.61719C42.4912 9.183 42.2957 8.84493 41.951 8.60298C41.6096 8.36103 41.1655 8.24006 40.6186 8.24006C40.2341 8.24006 39.9044 8.29806 39.6293 8.41406C39.3542 8.53007 39.1437 8.6875 38.9979 8.88636C38.852 9.08523 38.7775 9.31226 38.7741 9.56747C38.7741 9.77959 38.8222 9.96354 38.9183 10.1193C39.0178 10.2751 39.152 10.4077 39.321 10.517C39.4901 10.6231 39.6773 10.7126 39.8828 10.7855C40.0883 10.8584 40.2955 10.9197 40.5043 10.9695L41.4588 11.2081C41.8433 11.2976 42.2128 11.4186 42.5675 11.571C42.9254 11.7235 43.2453 11.9157 43.527 12.1477C43.812 12.3797 44.0374 12.6598 44.2031 12.9879C44.3688 13.3161 44.4517 13.7005 44.4517 14.1413C44.4517 14.7379 44.2992 15.2633 43.9943 15.7173C43.6894 16.1681 43.2486 16.5211 42.6719 16.7763C42.0985 17.0282 41.4041 17.1541 40.5888 17.1541C39.7966 17.1541 39.1089 17.0315 38.5256 16.7862C37.9455 16.541 37.4915 16.183 37.1634 15.7124C36.8385 15.2417 36.6629 14.6683 36.6364 13.9922H38.451C38.4775 14.3468 38.5869 14.6418 38.7791 14.8771C38.9714 15.1125 39.2216 15.2881 39.5298 15.4041C39.8414 15.5201 40.1894 15.5781 40.5739 15.5781C40.9749 15.5781 41.3262 15.5185 41.6278 15.3991C41.9328 15.2765 42.1714 15.1075 42.3438 14.892C42.5161 14.6733 42.6039 14.4181 42.6072 14.1264C42.6039 13.8613 42.526 13.6425 42.3736 13.4702C42.2211 13.2945 42.0073 13.1487 41.7322 13.0327C41.4605 12.9134 41.1423 12.8073 40.7777 12.7145L39.6193 12.4162C38.7808 12.2008 38.1179 11.8743 37.6307 11.4368C37.1468 10.996 36.9048 10.411 36.9048 9.68182C36.9048 9.08191 37.0672 8.55658 37.392 8.10582C37.7202 7.65507 38.166 7.3054 38.7294 7.05682C39.2929 6.80492 39.9309 6.67898 40.6435 6.67898C41.366 6.67898 41.9991 6.80492 42.5426 7.05682C43.0895 7.3054 43.5187 7.65175 43.8303 8.09588C44.1418 8.53669 44.3026 9.0438 44.3125 9.61719H42.5376ZM45.9325 19.8636V9.36364H47.7024V10.6264H47.8068C47.8996 10.4408 48.0305 10.2436 48.1996 10.0348C48.3686 9.82268 48.5973 9.64205 48.8856 9.4929C49.174 9.34044 49.5419 9.2642 49.9893 9.2642C50.5793 9.2642 51.1113 9.41501 51.5852 9.71662C52.0625 10.0149 52.4403 10.4574 52.7187 11.044C53.0005 11.6274 53.1413 12.3433 53.1413 13.1918C53.1413 14.0303 53.0038 14.7429 52.7287 15.3295C52.4536 15.9162 52.0791 16.3636 51.6051 16.6719C51.1311 16.9801 50.5942 17.1342 49.9943 17.1342C49.5568 17.1342 49.1939 17.0613 48.9055 16.9155C48.6172 16.7696 48.3852 16.594 48.2095 16.3885C48.0372 16.1797 47.9029 15.9825 47.8068 15.7969H47.7322V19.8636H45.9325ZM47.6974 13.1818C47.6974 13.6757 47.767 14.1082 47.9062 14.4794C48.0488 14.8506 48.2526 15.1406 48.5177 15.3494C48.7862 15.5549 49.111 15.6577 49.4922 15.6577C49.8899 15.6577 50.223 15.5516 50.4915 15.3395C50.7599 15.1241 50.9621 14.8307 51.098 14.4595C51.2372 14.085 51.3068 13.6591 51.3068 13.1818C51.3068 12.7079 51.2389 12.2869 51.103 11.919C50.9671 11.5511 50.7649 11.2628 50.4964 11.054C50.228 10.8452 49.8932 10.7408 49.4922 10.7408C49.1077 10.7408 48.7812 10.8419 48.5128 11.044C48.2443 11.2462 48.0405 11.5296 47.9013 11.8942C47.7654 12.2588 47.6974 12.688 47.6974 13.1818ZM57.9792 17.1491C57.2136 17.1491 56.5523 16.9901 55.9955 16.6719C55.442 16.3504 55.0161 15.8963 54.7178 15.3097C54.4195 14.7197 54.2704 14.0253 54.2704 13.2266C54.2704 12.4411 54.4195 11.7517 54.7178 11.1584C55.0194 10.5618 55.4404 10.0978 55.9806 9.76633C56.5209 9.43158 57.1556 9.2642 57.8847 9.2642C58.3554 9.2642 58.7995 9.34044 59.2171 9.4929C59.638 9.64205 60.0093 9.87405 60.3308 10.1889C60.6556 10.5038 60.9108 10.9048 61.0964 11.392C61.282 11.8759 61.3748 12.4527 61.3748 13.1222V13.674H55.1156V12.4609H59.6496C59.6463 12.1162 59.5718 11.8097 59.4259 11.5412C59.2801 11.2694 59.0763 11.0556 58.8144 10.8999C58.5559 10.7441 58.2543 10.6662 57.9096 10.6662C57.5417 10.6662 57.2185 10.7557 56.9401 10.9347C56.6617 11.1103 56.4446 11.3423 56.2889 11.6307C56.1364 11.9157 56.0585 12.2289 56.0552 12.5703V13.6293C56.0552 14.0734 56.1364 14.4545 56.2988 14.7727C56.4612 15.0876 56.6882 15.3295 56.9799 15.4986C57.2716 15.6643 57.613 15.7472 58.0041 15.7472C58.2659 15.7472 58.5029 15.7107 58.715 15.6378C58.9271 15.5616 59.1111 15.4505 59.2668 15.3047C59.4226 15.1589 59.5403 14.9782 59.6198 14.7628L61.3002 14.9517C61.1942 15.3958 60.992 15.7836 60.6937 16.1151C60.3987 16.4432 60.0209 16.6984 59.5602 16.8807C59.0995 17.0597 58.5725 17.1491 57.9792 17.1491ZM66.1443 17.1491C65.382 17.1491 64.7274 16.9818 64.1805 16.647C63.637 16.3123 63.2177 15.8499 62.9227 15.2599C62.631 14.6667 62.4852 13.9839 62.4852 13.2116C62.4852 12.4361 62.6344 11.7517 62.9327 11.1584C63.231 10.5618 63.6519 10.0978 64.1954 9.76633C64.7423 9.43158 65.3886 9.2642 66.1344 9.2642C66.7542 9.2642 67.3027 9.37855 67.78 9.60724C68.2605 9.83262 68.6434 10.1525 68.9284 10.5668C69.2134 10.9777 69.3758 11.4583 69.4156 12.0085H67.6954C67.6258 11.6406 67.4601 11.334 67.1983 11.0888C66.9398 10.8402 66.5934 10.7159 66.1592 10.7159C65.7913 10.7159 65.4682 10.8153 65.1898 11.0142C64.9114 11.2098 64.6943 11.4915 64.5385 11.8594C64.386 12.2273 64.3098 12.6681 64.3098 13.1818C64.3098 13.7022 64.386 14.1496 64.5385 14.5241C64.6909 14.8954 64.9047 15.1821 65.1798 15.3842C65.4582 15.5831 65.7847 15.6825 66.1592 15.6825C66.4244 15.6825 66.6614 15.6328 66.8702 15.5334C67.0823 15.4306 67.2596 15.2831 67.4021 15.0909C67.5446 14.8987 67.6424 14.665 67.6954 14.3899H69.4156C69.3725 14.9302 69.2134 15.4091 68.9383 15.8267C68.6632 16.241 68.2887 16.5658 67.8148 16.8011C67.3408 17.0331 66.784 17.1491 66.1443 17.1491ZM72.45 14.6037L72.4451 12.4311H72.7334L75.4777 9.36364H77.5807L74.205 13.1222H73.8321L72.45 14.6037ZM70.8094 17V6.81818H72.6091V17H70.8094ZM75.602 17L73.1162 13.5249L74.3293 12.2571L77.7547 17H75.602ZM80.4958 6.81818V17H78.6961V6.81818H80.4958ZM85.6432 17.1491C84.8776 17.1491 84.2163 16.9901 83.6595 16.6719C83.106 16.3504 82.6801 15.8963 82.3818 15.3097C82.0835 14.7197 81.9344 14.0253 81.9344 13.2266C81.9344 12.4411 82.0835 11.7517 82.3818 11.1584C82.6834 10.5618 83.1044 10.0978 83.6446 9.76633C84.1849 9.43158 84.8196 9.2642 85.5487 9.2642C86.0194 9.2642 86.4635 9.34044 86.8811 9.4929C87.302 9.64205 87.6733 9.87405 87.9948 10.1889C88.3196 10.5038 88.5748 10.9048 88.7604 11.392C88.946 11.8759 89.0388 12.4527 89.0388 13.1222V13.674H82.7796V12.4609H87.3136C87.3103 12.1162 87.2358 11.8097 87.0899 11.5412C86.9441 11.2694 86.7403 11.0556 86.4784 10.8999C86.2199 10.7441 85.9183 10.6662 85.5736 10.6662C85.2057 10.6662 84.8825 10.7557 84.6041 10.9347C84.3257 11.1103 84.1086 11.3423 83.9529 11.6307C83.8004 11.9157 83.7225 12.2289 83.7192 12.5703V13.6293C83.7192 14.0734 83.8004 14.4545 83.9628 14.7727C84.1252 15.0876 84.3522 15.3295 84.6439 15.4986C84.9356 15.6643 85.277 15.7472 85.6681 15.7472C85.9299 15.7472 86.1669 15.7107 86.379 15.6378C86.5911 15.5616 86.7751 15.4505 86.9308 15.3047C87.0866 15.1589 87.2043 14.9782 87.2838 14.7628L88.9642 14.9517C88.8582 15.3958 88.656 15.7836 88.3577 16.1151C88.0627 16.4432 87.6849 16.6984 87.2242 16.8807C86.7635 17.0597 86.2365 17.1491 85.6432 17.1491Z" fill="white"/>
<path d="M97.3561 17H94.0599V6.81818H97.4605C98.4581 6.81818 99.3149 7.02202 100.031 7.42969C100.747 7.83404 101.295 8.41572 101.676 9.17472C102.061 9.9304 102.253 10.8369 102.253 11.8942C102.253 12.9548 102.059 13.8662 101.671 14.6286C101.287 15.3909 100.73 15.9775 100.001 16.3885C99.2718 16.7962 98.3901 17 97.3561 17ZM95.5961 15.6577H97.2715C98.0471 15.6577 98.6918 15.5118 99.2055 15.2202C99.7192 14.9252 100.104 14.4993 100.359 13.9425C100.614 13.3823 100.742 12.6996 100.742 11.8942C100.742 11.0954 100.614 10.4176 100.359 9.8608C100.107 9.30398 99.7308 8.88139 99.2303 8.59304C98.7299 8.30469 98.1084 8.16051 97.366 8.16051H95.5961V15.6577ZM107.177 17.1541C106.461 17.1541 105.836 16.9901 105.302 16.6619C104.769 16.3338 104.355 15.8748 104.06 15.2848C103.765 14.6948 103.617 14.0054 103.617 13.2166C103.617 12.4245 103.765 11.7318 104.06 11.1385C104.355 10.5452 104.769 10.0845 105.302 9.75639C105.836 9.42827 106.461 9.2642 107.177 9.2642C107.893 9.2642 108.517 9.42827 109.051 9.75639C109.585 10.0845 109.999 10.5452 110.294 11.1385C110.589 11.7318 110.736 12.4245 110.736 13.2166C110.736 14.0054 110.589 14.6948 110.294 15.2848C109.999 15.8748 109.585 16.3338 109.051 16.6619C108.517 16.9901 107.893 17.1541 107.177 17.1541ZM107.182 15.9062C107.646 15.9062 108.03 15.7836 108.335 15.5384C108.64 15.2931 108.865 14.9666 109.011 14.5589C109.16 14.1513 109.235 13.7022 109.235 13.2116C109.235 12.7244 109.16 12.277 109.011 11.8693C108.865 11.4583 108.64 11.1286 108.335 10.88C108.03 10.6314 107.646 10.5071 107.182 10.5071C106.714 10.5071 106.327 10.6314 106.018 10.88C105.713 11.1286 105.486 11.4583 105.337 11.8693C105.191 12.277 105.118 12.7244 105.118 13.2116C105.118 13.7022 105.191 14.1513 105.337 14.5589C105.486 14.9666 105.713 15.2931 106.018 15.5384C106.327 15.7836 106.714 15.9062 107.182 15.9062ZM115.528 17.1541C114.789 17.1541 114.153 16.9867 113.619 16.652C113.089 16.3139 112.681 15.8482 112.396 15.255C112.111 14.6617 111.969 13.9822 111.969 13.2166C111.969 12.4411 112.114 11.7566 112.406 11.1634C112.698 10.5668 113.109 10.1011 113.639 9.76633C114.169 9.43158 114.794 9.2642 115.513 9.2642C116.093 9.2642 116.61 9.37192 117.064 9.58736C117.519 9.79948 117.885 10.0978 118.163 10.4822C118.445 10.8667 118.612 11.3158 118.665 11.8295H117.219C117.139 11.4716 116.957 11.1634 116.672 10.9048C116.39 10.6463 116.012 10.517 115.538 10.517C115.124 10.517 114.761 10.6264 114.449 10.8452C114.141 11.0606 113.901 11.3688 113.729 11.7699C113.556 12.1676 113.47 12.6383 113.47 13.1818C113.47 13.7386 113.555 14.2192 113.724 14.6236C113.893 15.0279 114.131 15.3411 114.439 15.5632C114.751 15.7853 115.117 15.8963 115.538 15.8963C115.82 15.8963 116.075 15.8449 116.304 15.7422C116.536 15.6361 116.73 15.4853 116.886 15.2898C117.045 15.0942 117.156 14.8589 117.219 14.5838H118.665C118.612 15.0777 118.452 15.5185 118.183 15.9062C117.915 16.294 117.555 16.599 117.104 16.821C116.657 17.0431 116.131 17.1541 115.528 17.1541ZM125.893 11.228L124.546 11.4666C124.49 11.2943 124.4 11.1302 124.278 10.9744C124.158 10.8187 123.996 10.6911 123.79 10.5916C123.585 10.4922 123.328 10.4425 123.02 10.4425C122.599 10.4425 122.247 10.5369 121.966 10.7259C121.684 10.9115 121.543 11.1518 121.543 11.4467C121.543 11.7019 121.638 11.9074 121.827 12.0632C122.015 12.219 122.32 12.3466 122.741 12.446L123.954 12.7244C124.657 12.8868 125.181 13.1371 125.525 13.4751C125.87 13.8132 126.042 14.2524 126.042 14.7926C126.042 15.25 125.91 15.6577 125.645 16.0156C125.383 16.3703 125.017 16.6487 124.546 16.8509C124.079 17.053 123.537 17.1541 122.92 17.1541C122.065 17.1541 121.367 16.9718 120.827 16.6072C120.287 16.2393 119.956 15.7173 119.833 15.0412L121.27 14.8224C121.359 15.197 121.543 15.4804 121.822 15.6726C122.1 15.8615 122.463 15.956 122.91 15.956C123.398 15.956 123.787 15.8549 124.079 15.6527C124.37 15.4472 124.516 15.197 124.516 14.902C124.516 14.6634 124.427 14.4628 124.248 14.3004C124.072 14.138 123.802 14.0154 123.437 13.9325L122.145 13.6491C121.432 13.4867 120.905 13.2282 120.564 12.8736C120.226 12.5189 120.057 12.0698 120.057 11.5263C120.057 11.0755 120.183 10.6811 120.434 10.343C120.686 10.005 121.034 9.74148 121.479 9.55256C121.923 9.36032 122.431 9.2642 123.005 9.2642C123.83 9.2642 124.48 9.44318 124.954 9.80114C125.428 10.1558 125.741 10.6314 125.893 11.228Z" fill="#C4C4C4"/>
<defs>
<clipPath id="clip0_1671_45896">
<rect width="24" height="24" fill="white"/>
</clipPath>
</defs>
</svg>
